<svg xmlns="http://www.w3.org/2000/svg" width="1920" height="1080" viewBox="0 0 1920 1080"><defs><linearGradient id="room" x1="0" y1="0" x2="0" y2="1"><stop offset="0%" stop-color="#4a2415"/><stop offset="100%" stop-color="#6a351e"/></linearGradient><linearGradient id="floor" x1="0" y1="0" x2="1" y2="1"><stop offset="0%" stop-color="#865331"/><stop offset="100%" stop-color="#4f2e1f"/></linearGradient><linearGradient id="deck" x1="0" y1="0" x2="1" y2="1"><stop offset="0%" stop-color="#6a432b"/><stop offset="100%" stop-color="#3a261d"/></linearGradient><linearGradient id="forest" x1="0" y1="0" x2="0" y2="1"><stop offset="0%" stop-color="#9fcf79"/><stop offset="55%" stop-color="#5e9f4e"/><stop offset="100%" stop-color="#345c35"/></linearGradient><linearGradient id="glass" x1="0" y1="0" x2="1" y2="1"><stop offset="0%" stop-color="#e7f1ea" stop-opacity=".18"/><stop offset="100%" stop-color="#b9d7d0" stop-opacity=".04"/></linearGradient><filter id="warmGlow" x="-50%" y="-50%" width="200%" height="200%"><feGaussianBlur stdDeviation="12"/></filter><pattern id="woodWall" width="110" height="28" patternUnits="userSpaceOnUse"><rect width="110" height="28" fill="#5a2d1b"/><path d="M0 26 H110" stroke="#7b432a" stroke-width="2" opacity=".48"/><path d="M18 8 C40 2 60 14 94 7" stroke="#8b5233" stroke-width="2" fill="none" opacity=".28"/></pattern><pattern id="woodFloor" width="180" height="34" patternUnits="userSpaceOnUse"><rect width="180" height="34" fill="#6c422b"/><path d="M0 32 H180" stroke="#3f281d" stroke-width="2" opacity=".45"/><path d="M12 10 C52 3 108 18 170 8" stroke="#9b6542" stroke-width="2" fill="none" opacity=".22"/></pattern></defs><rect width="1920" height="1080" fill="#3b2118"/><polygon points="0,0 1920,0 1920,175 0,300" fill="#4a281c"/><polygon points="0,0 760,0 555,275 0,300" fill="#4d2a1c"/><polygon points="760,0 1920,0 1920,175 1120,118" fill="#3d2017"/><g stroke="#6b3a24" stroke-width="28" opacity=".95"><line x1="40" y1="0" x2="580" y2="292"/><line x1="305" y1="0" x2="700" y2="265"/><line x1="655" y1="0" x2="805" y2="235"/><line x1="940" y1="0" x2="965" y2="210"/><line x1="1260" y1="0" x2="1110" y2="180"/><line x1="1570" y1="0" x2="1240" y2="150"/></g><g stroke="#81482c" stroke-width="10" opacity=".75"><line x1="140" y1="55" x2="1430" y2="22"/><line x1="200" y1="125" x2="1340" y2="82"/><line x1="280" y1="198" x2="1220" y2="145"/></g><rect x="0" y="238" width="1920" height="842" fill="url(#woodWall)"/><rect x="0" y="310" width="665" height="770" fill="#223024"/><rect x="0" y="310" width="665" height="770" fill="url(#forest)"/><g opacity=".95"><g fill="#315d35"><circle cx="70" cy="420" r="95"/><circle cx="160" cy="365" r="120"/><circle cx="275" cy="430" r="110"/><circle cx="390" cy="365" r="135"/><circle cx="520" cy="430" r="110"/><circle cx="620" cy="360" r="120"/></g><g fill="#79b85d"><circle cx="90" cy="355" r="70"/><circle cx="235" cy="315" r="80"/><circle cx="405" cy="300" r="75"/><circle cx="555" cy="325" r="82"/></g><g fill="#9bd56f" opacity=".72"><circle cx="42" cy="520" r="65"/><circle cx="205" cy="505" r="72"/><circle cx="465" cy="510" r="68"/></g><g fill="#4a6e3c"><rect x="110" y="380" width="20" height="310"/><rect x="330" y="350" width="18" height="350"/><rect x="545" y="360" width="18" height="340"/></g></g><polygon points="0,770 665,675 665,1080 0,1080" fill="url(#deck)"/><g stroke="#9a6f50" stroke-width="4" opacity=".45"><line x1="0" y1="810" x2="665" y2="715"/><line x1="0" y1="865" x2="665" y2="770"/><line x1="0" y1="920" x2="665" y2="825"/><line x1="0" y1="975" x2="665" y2="880"/></g><g stroke="#563827" stroke-width="14"><line x1="30" y1="675" x2="640" y2="590"/><line x1="55" y1="735" x2="650" y2="655"/><line x1="85" y1="655" x2="85" y2="780"/><line x1="250" y1="635" x2="250" y2="760"/><line x1="420" y1="615" x2="420" y2="735"/><line x1="590" y1="595" x2="590" y2="715"/></g><g stroke="#1a2020" stroke-width="18"><line x1="0" y1="310" x2="665" y2="310"/><line x1="0" y1="310" x2="0" y2="1080"/><line x1="330" y1="310" x2="330" y2="1080"/><line x1="665" y1="310" x2="665" y2="1080"/></g><rect x="0" y="310" width="665" height="770" fill="url(#glass)"/><rect x="705" y="430" width="575" height="305" rx="4" fill="#27352c"/><rect x="720" y="445" width="545" height="275" rx="3" fill="url(#forest)"/><g fill="#365f36"><circle cx="760" cy="520" r="80"/><circle cx="880" cy="505" r="100"/><circle cx="1015" cy="515" r="90"/><circle cx="1160" cy="520" r="100"/></g><g fill="#8fc86e"><circle cx="805" cy="475" r="55"/><circle cx="950" cy="455" r="65"/><circle cx="1090" cy="475" r="60"/></g><g fill="#496b3f"><rect x="820" y="500" width="14" height="170"/><rect x="1010" y="485" width="14" height="190"/></g><g stroke="#5b3c2c" stroke-width="12"><line x1="730" y1="640" x2="1250" y2="640"/><line x1="735" y1="680" x2="1245" y2="680"/><line x1="780" y1="630" x2="780" y2="700"/><line x1="960" y1="630" x2="960" y2="700"/><line x1="1140" y1="630" x2="1140" y2="700"/></g><path d="M688 420 C670 505 682 620 702 748 L748 748 C730 620 730 505 748 420 Z" fill="#eee9df"/><path d="M1275 420 C1296 500 1290 618 1270 748 L1317 748 C1335 618 1336 500 1318 420 Z" fill="#eee9df"/><polygon points="560,740 1920,685 1920,1080 360,1080" fill="url(#woodFloor)"/><g><rect x="610" y="640" width="145" height="220" rx="6" fill="#222628"/><rect x="626" y="660" width="113" height="120" rx="5" fill="#171a1c"/><rect x="628" y="796" width="108" height="16" rx="4" fill="#303536"/><rect x="630" y="860" width="18" height="70" fill="#222628"/><rect x="718" y="860" width="18" height="70" fill="#222628"/></g><g transform="translate(365 770)"><path d="M0 110 Q20 35 100 30 Q220 35 310 90 L280 220 Q190 190 95 205 Q35 210 0 110 Z" fill="#c7ad87"/><path d="M18 105 Q35 60 100 54 Q215 60 290 102" stroke="#7e6148" stroke-width="8" fill="none"/><g stroke="#835d44" stroke-width="7"><line x1="65" y1="215" x2="45" y2="315"/><line x1="250" y1="215" x2="285" y2="315"/></g><g stroke-width="10" opacity=".8"><path d="M55 95 L90 70 L125 95 L160 70 L195 95 L230 70" stroke="#7c5137" fill="none"/><path d="M72 135 L107 110 L142 135 L177 110 L212 135 L247 110" stroke="#4f7180" fill="none"/></g></g><g><line x1="1485" y1="0" x2="1485" y2="415" stroke="#d6d1c6" stroke-width="7"/><line x1="1485" y1="160" x2="1515" y2="415" stroke="#d6d1c6" stroke-width="5"/><path d="M1435 430 Q1490 395 1540 430" stroke="#d6c7b2" stroke-width="14" fill="none" stroke-linecap="round"/><path d="M1450 440 Q1490 555 1530 440" stroke="#28342e" stroke-width="15" fill="none"/><path d="M1465 455 Q1490 540 1515 455" stroke="#5c5f58" stroke-width="24" fill="none"/></g><g><rect x="1660" y="360" width="210" height="360" fill="#7d4528"/><rect x="1682" y="392" width="165" height="18" fill="#a85f33"/><rect x="1682" y="485" width="165" height="18" fill="#a85f33"/><rect x="1682" y="580" width="165" height="18" fill="#a85f33"/><g fill="#cbb08d"><rect x="1700" y="415" width="18" height="55"/><rect x="1722" y="405" width="16" height="65"/><rect x="1743" y="422" width="18" height="48"/><rect x="1768" y="410" width="16" height="60"/><rect x="1789" y="418" width="18" height="52"/></g><circle cx="1705" cy="350" r="18" fill="#f0c98a"/><circle cx="1705" cy="350" r="44" fill="#f0b75f" opacity=".22" filter="url(#warmGlow)"/></g><g><rect x="1585" y="745" width="300" height="145" rx="26" fill="#65554a"/><rect x="1615" y="705" width="260" height="85" rx="24" fill="#6e5d51"/><rect x="1628" y="730" width="95" height="55" rx="12" fill="#a48764"/><rect x="1730" y="730" width="90" height="55" rx="12" fill="#7a6652"/></g><g><ellipse cx="1630" cy="910" rx="170" ry="38" fill="#3a2418" opacity=".35"/><polygon points="1485,835 1770,820 1825,875 1535,895" fill="#3d2a21"/><line x1="1535" y1="895" x2="1520" y2="980" stroke="#3d2a21" stroke-width="15"/><line x1="1785" y1="875" x2="1805" y2="960" stroke="#3d2a21" stroke-width="15"/></g><path d="M990 835 C1160 780 1340 870 1500 815 C1620 775 1735 820 1860 785" stroke="#f2c881" stroke-width="4" fill="none" opacity=".7"/><g fill="#ffd793"><circle cx="1020" cy="825" r="7"/><circle cx="1085" cy="810" r="7"/><circle cx="1160" cy="815" r="7"/><circle cx="1240" cy="835" r="7"/><circle cx="1330" cy="850" r="7"/><circle cx="1420" cy="832" r="7"/><circle cx="1510" cy="810" r="7"/><circle cx="1600" cy="800" r="7"/><circle cx="1710" cy="807" r="7"/><circle cx="1810" cy="792" r="7"/></g><rect width="1920" height="1080" fill="none" stroke="#1b110d" stroke-width="80" opacity=".22"/></svg>