<svg width="1920" height="1080" viewBox="0 0 1920 1080" fill="none" xmlns="http://www.w3.org/2000/svg"><defs><linearGradient id="wall" x1="960" y1="0" x2="960" y2="1080" gradientUnits="userSpaceOnUse"><stop offset="0" stop-color="#D8D0C6"/><stop offset="0.42" stop-color="#C5B8AA"/><stop offset="1" stop-color="#9B8878"/></linearGradient><linearGradient id="doorLeft" x1="0" y1="0" x2="1" y2="1"><stop offset="0" stop-color="#A89B90"/><stop offset="1" stop-color="#7B6C62"/></linearGradient><linearGradient id="doorRight" x1="0" y1="0" x2="1" y2="1"><stop offset="0" stop-color="#95877B"/><stop offset="1" stop-color="#685C54"/></linearGradient><linearGradient id="floor" x1="960" y1="770" x2="960" y2="1080" gradientUnits="userSpaceOnUse"><stop offset="0" stop-color="#6D5744"/><stop offset="0.46" stop-color="#523E2F"/><stop offset="1" stop-color="#33241C"/></linearGradient><linearGradient id="panel" x1="0" y1="0" x2="1" y2="1"><stop offset="0" stop-color="#2E2A2B"/><stop offset="1" stop-color="#111012"/></linearGradient><linearGradient id="gold" x1="0" y1="0" x2="1" y2="1"><stop offset="0" stop-color="#E7CF96"/><stop offset="1" stop-color="#B88D48"/></linearGradient><radialGradient id="ceilingLight" cx="0" cy="0" r="1" gradientUnits="userSpaceOnUse" gradientTransform="translate(960 122) rotate(90) scale(170 760)"><stop offset="0" stop-color="#FFF0D6" stop-opacity="0.74"/><stop offset="1" stop-color="#FFF0D6" stop-opacity="0"/></radialGradient><radialGradient id="doorGlow" cx="0" cy="0" r="1" gradientUnits="userSpaceOnUse" gradientTransform="translate(960 494) rotate(90) scale(430 360)"><stop offset="0" stop-color="#FFF2DB" stop-opacity="0.14"/><stop offset="1" stop-color="#FFF2DB" stop-opacity="0"/></radialGradient><radialGradient id="vignette" cx="0" cy="0" r="1" gradientUnits="userSpaceOnUse" gradientTransform="translate(960 540) scale(1120 670)"><stop offset="0.78" stop-color="#000" stop-opacity="0"/><stop offset="1" stop-color="#000" stop-opacity="0.26"/></radialGradient><filter id="shadow" x="-20%" y="-20%" width="140%" height="140%"><feDropShadow dx="0" dy="10" stdDeviation="14" flood-color="#000" flood-opacity="0.18"/></filter><filter id="smallShadow" x="-20%" y="-20%" width="140%" height="140%"><feDropShadow dx="0" dy="6" stdDeviation="8" flood-color="#000" flood-opacity="0.12"/></filter><filter id="grain" x="0" y="0" width="100%" height="100%"><feTurbulence type="fractalNoise" baseFrequency="0.78" numOctaves="2" stitchTiles="stitch" result="noise"/><feColorMatrix in="noise" type="saturate" values="0"/><feComponentTransfer><feFuncA type="table" tableValues="0 0.028"/></feComponentTransfer></filter></defs><rect width="1920" height="770" fill="url(#wall)"/><rect y="770" width="1920" height="310" fill="url(#floor)"/><ellipse cx="960" cy="122" rx="760" ry="170" fill="url(#ceilingLight)"/><ellipse cx="960" cy="494" rx="360" ry="430" fill="url(#doorGlow)"/><rect x="0" y="74" width="1920" height="24" fill="#C2B1A0" opacity="0.4"/><rect x="0" y="98" width="1920" height="14" fill="#AC9987" opacity="0.24"/><circle cx="722" cy="104" r="8" fill="#D5C19E"/><circle cx="960" cy="104" r="8" fill="#D5C19E"/><circle cx="1198" cy="104" r="8" fill="#D5C19E"/><g filter="url(#smallShadow)"><rect x="144" y="184" width="270" height="462" rx="12" fill="#CFC1B2"/><rect x="164" y="206" width="230" height="420" rx="8" fill="#E4D8CC"/><rect x="1506" y="184" width="270" height="462" rx="12" fill="#CFC1B2"/><rect x="1526" y="206" width="230" height="420" rx="8" fill="#E4D8CC"/></g><g opacity="0.2" stroke="#B19C8A" stroke-width="4"><line x1="278" y1="214" x2="278" y2="616"/><line x1="1640" y1="214" x2="1640" y2="616"/></g><g filter="url(#shadow)"><rect x="540" y="134" width="840" height="624" rx="18" fill="#C6B6A8"/><rect x="586" y="178" width="748" height="538" rx="10" fill="#8F7E71"/><rect x="622" y="208" width="676" height="476" rx="8" fill="#A99B90"/><rect x="622" y="208" width="338" height="476" rx="8" fill="url(#doorLeft)"/><rect x="960" y="208" width="338" height="476" rx="8" fill="url(#doorRight)"/><rect x="956" y="208" width="8" height="476" fill="#DCCCBD"/><rect x="660" y="246" width="10" height="400" fill="#C7B6A8" opacity="0.45"/><rect x="1250" y="246" width="10" height="400" fill="#B5A392" opacity="0.45"/></g><g filter="url(#smallShadow)"><rect x="814" y="124" width="292" height="58" rx="12" fill="#B9A798"/><rect x="844" y="138" width="232" height="30" rx="8" fill="#181516"/><path d="M918 153L938 143V163L918 153Z" fill="url(#gold)"/><text x="960" y="160" text-anchor="middle" font-size="20" font-family="Arial, Helvetica, sans-serif" fill="#F5DFAC">37F</text></g><g filter="url(#smallShadow)"><rect x="1338" y="252" width="122" height="270" rx="12" fill="#D8CDC1"/><rect x="1364" y="278" width="70" height="186" rx="10" fill="url(#panel)"/><circle cx="1398" cy="314" r="12" fill="url(#gold)"/><circle cx="1398" cy="356" r="12" fill="#B6B1AC"/><circle cx="1398" cy="398" r="12" fill="#B6B1AC"/><circle cx="1398" cy="440" r="12" fill="#B6B1AC"/><rect x="1408" y="300" width="10" height="28" rx="4" fill="#191517"/><path d="M1378 522H1420L1436 626H1362L1378 522Z" fill="#332925" opacity="0.16"/></g><g opacity="0.22" stroke="#EEE2D8" stroke-width="6" stroke-linecap="round"><line x1="720" y1="238" x2="676" y2="646"/><line x1="882" y1="242" x2="846" y2="646"/><line x1="1086" y1="240" x2="1124" y2="646"/><line x1="1234" y1="240" x2="1278" y2="646"/></g><g><rect x="654" y="760" width="612" height="144" rx="18" fill="#867261" opacity="0.72"/><rect x="724" y="794" width="472" height="74" rx="12" fill="#A48E79" opacity="0.74"/></g><g opacity="0.14" stroke="#231813" stroke-width="3"><line x1="108" y1="856" x2="1812" y2="856"/><line x1="132" y1="944" x2="1788" y2="944"/><line x1="152" y1="1020" x2="1768" y2="1020"/></g><rect width="1920" height="1080" filter="url(#grain)" opacity="0.82"/><rect width="1920" height="1080" fill="url(#vignette)"/></svg>