<svg width="1920" height="1080" viewBox="0 0 1920 1080" fill="none" xmlns="http://www.w3.org/2000/svg"><defs><linearGradient id="sky" x1="960" y1="0" x2="960" y2="1080" gradientUnits="userSpaceOnUse"><stop offset="0" stop-color="#172238"/><stop offset="0.44" stop-color="#26364F"/><stop offset="1" stop-color="#403B46"/></linearGradient><linearGradient id="ground" x1="960" y1="766" x2="960" y2="1080" gradientUnits="userSpaceOnUse"><stop offset="0" stop-color="#494043"/><stop offset="1" stop-color="#211E22"/></linearGradient><linearGradient id="towerStone" x1="0" y1="0" x2="0" y2="1"><stop offset="0" stop-color="#777980"/><stop offset="1" stop-color="#66616A"/></linearGradient><linearGradient id="towerShadow" x1="0" y1="0" x2="1" y2="1"><stop offset="0" stop-color="#68616A"/><stop offset="1" stop-color="#534B52"/></linearGradient><linearGradient id="glass" x1="0" y1="0" x2="1" y2="1"><stop offset="0" stop-color="#43546D"/><stop offset="1" stop-color="#26374D"/></linearGradient><linearGradient id="darkGlass" x1="0" y1="0" x2="1" y2="1"><stop offset="0" stop-color="#2C3A4F"/><stop offset="1" stop-color="#1E2B3C"/></linearGradient><linearGradient id="warm" x1="0" y1="0" x2="1" y2="1"><stop offset="0" stop-color="#F4DE9B"/><stop offset="1" stop-color="#C99D4A"/></linearGradient><linearGradient id="tree" x1="0" y1="0" x2="1" y2="1"><stop offset="0" stop-color="#566651"/><stop offset="1" stop-color="#3C493A"/></linearGradient><radialGradient id="sunwash" cx="0" cy="0" r="1" gradientUnits="userSpaceOnUse" gradientTransform="translate(1040 180) rotate(90) scale(260 820)"><stop offset="0" stop-color="#D7E0FF" stop-opacity="0.18"/><stop offset="1" stop-color="#D7E0FF" stop-opacity="0"/></radialGradient><radialGradient id="vignette" cx="0" cy="0" r="1" gradientUnits="userSpaceOnUse" gradientTransform="translate(960 540) scale(1120 650)"><stop offset="0.72" stop-color="#000" stop-opacity="0"/><stop offset="1" stop-color="#000" stop-opacity="0.38"/></radialGradient><filter id="shadow" x="-20%" y="-20%" width="140%" height="140%"><feDropShadow dx="0" dy="12" stdDeviation="16" flood-color="#000" flood-opacity="0.28"/></filter><filter id="smallShadow" x="-20%" y="-20%" width="140%" height="140%"><feDropShadow dx="0" dy="8" stdDeviation="10" flood-color="#000" flood-opacity="0.22"/></filter><filter id="grain" x="0" y="0" width="100%" height="100%"><feTurbulence type="fractalNoise" baseFrequency="0.78" numOctaves="2" stitchTiles="stitch" result="noise"/><feColorMatrix in="noise" type="saturate" values="0"/><feComponentTransfer><feFuncA type="table" tableValues="0 0.035"/></feComponentTransfer></filter></defs><rect width="1920" height="1080" fill="#777980"/><rect width="1920" height="766" fill="url(#sky)"/><rect y="766" width="1920" height="314" fill="url(#ground)"/><ellipse cx="1040" cy="180" rx="820" ry="260" fill="url(#sunwash)"/><g opacity="0.28"><rect x="24" y="214" width="94" height="306" rx="6" fill="#5D6574"/><rect x="108" y="170" width="110" height="350" rx="6" fill="#505968"/><rect x="214" y="204" width="78" height="316" rx="6" fill="#68717E"/><rect x="302" y="154" width="130" height="366" rx="6" fill="#4B5665"/><rect x="1492" y="182" width="118" height="338" rx="6" fill="#596270"/><rect x="1606" y="224" width="88" height="296" rx="6" fill="#697280"/><rect x="1686" y="172" width="128" height="348" rx="6" fill="#505968"/><rect x="1802" y="212" width="82" height="308" rx="6" fill="#697280"/></g><g filter="url(#smallShadow)" opacity="0.96"><path d="M42 340H392V806H42V340Z" fill="#756E6C"/><rect x="42" y="340" width="350" height="66" fill="#645B57"/><rect x="92" y="454" width="98" height="214" rx="6" fill="url(#glass)"/><rect x="212" y="454" width="136" height="214" rx="6" fill="#7A706A"/><rect x="88" y="694" width="264" height="78" rx="6" fill="#6C6461"/><rect x="84" y="362" width="126" height="22" rx="6" fill="#E8D59B"/><path d="M1526 312H1868V822H1526V312Z" fill="#736C69"/><rect x="1526" y="312" width="342" height="66" fill="#5E5652"/><rect x="1574" y="432" width="110" height="228" rx="6" fill="url(#glass)"/><rect x="1706" y="432" width="116" height="228" rx="6" fill="#7B716B"/><rect x="1574" y="690" width="248" height="80" rx="6" fill="#6D6561"/><rect x="1566" y="334" width="136" height="22" rx="6" fill="#E8D59B"/></g><g filter="url(#shadow)"><path d="M520 -120H1400V932H520V-120Z" fill="url(#towerStone)"/><path d="M600 -84H1320V894H600V-84Z" fill="#72747B"/><rect x="560" y="-146" width="800" height="54" rx="12" fill="#8B8E95"/><rect x="620" y="-100" width="680" height="20" rx="6" fill="#5D5960" opacity="0.62"/></g><g><rect x="566" y="-84" width="40" height="978" fill="url(#towerShadow)" opacity="0.55"/><rect x="1314" y="-84" width="40" height="978" fill="url(#towerShadow)" opacity="0.55"/><rect x="760" y="-84" width="24" height="978" fill="#5D5960" opacity="0.62"/><rect x="948" y="-84" width="36" height="978" fill="#5D5960" opacity="0.62"/><rect x="1138" y="-84" width="24" height="978" fill="#5D5960" opacity="0.62"/></g><g opacity="0.66"><rect x="600" y="132" width="720" height="14" fill="#605957"/><rect x="600" y="252" width="720" height="14" fill="#605957"/><rect x="600" y="372" width="720" height="14" fill="#605957"/><rect x="600" y="492" width="720" height="14" fill="#605957"/><rect x="600" y="612" width="720" height="14" fill="#605957"/><rect x="600" y="732" width="720" height="14" fill="#605957"/></g><g filter="url(#smallShadow)"><rect x="890" y="-84" width="140" height="978" fill="#7D7F86"/><rect x="914" y="-84" width="92" height="978" fill="url(#darkGlass)"/><g opacity="0.56" stroke="#5B555A" stroke-width="4"><line x1="960" y1="-84" x2="960" y2="894"/></g></g><g><rect x="640" y="4" width="214" height="98" rx="8" fill="url(#glass)"/><rect x="1066" y="4" width="214" height="98" rx="8" fill="url(#glass)"/><rect x="640" y="124" width="214" height="98" rx="8" fill="url(#glass)"/><rect x="1066" y="124" width="214" height="98" rx="8" fill="url(#glass)"/><rect x="640" y="244" width="214" height="98" rx="8" fill="url(#glass)"/><rect x="1066" y="244" width="214" height="98" rx="8" fill="url(#glass)"/><rect x="640" y="364" width="214" height="98" rx="8" fill="url(#glass)"/><rect x="1066" y="364" width="214" height="98" rx="8" fill="url(#glass)"/><rect x="640" y="484" width="214" height="98" rx="8" fill="url(#glass)"/><rect x="1066" y="484" width="214" height="98" rx="8" fill="url(#glass)"/><rect x="640" y="604" width="214" height="98" rx="8" fill="url(#glass)"/><rect x="1066" y="604" width="214" height="98" rx="8" fill="url(#glass)"/><rect x="640" y="724" width="214" height="98" rx="8" fill="url(#glass)"/><rect x="1066" y="724" width="214" height="98" rx="8" fill="url(#glass)"/></g><g opacity="0.48" stroke="#5E5655" stroke-width="4"><line x1="628" y1="114" x2="866" y2="114"/><line x1="1054" y1="114" x2="1292" y2="114"/><line x1="628" y1="234" x2="866" y2="234"/><line x1="1054" y1="234" x2="1292" y2="234"/><line x1="628" y1="354" x2="866" y2="354"/><line x1="1054" y1="354" x2="1292" y2="354"/><line x1="628" y1="474" x2="866" y2="474"/><line x1="1054" y1="474" x2="1292" y2="474"/><line x1="628" y1="594" x2="866" y2="594"/><line x1="1054" y1="594" x2="1292" y2="594"/><line x1="628" y1="714" x2="866" y2="714"/><line x1="1054" y1="714" x2="1292" y2="714"/><line x1="628" y1="834" x2="866" y2="834"/><line x1="1054" y1="834" x2="1292" y2="834"/></g><g opacity="0.95"><rect x="656" y="24" width="58" height="54" rx="5" fill="url(#warm)"/><rect x="728" y="24" width="52" height="54" rx="5" fill="#CCD8E7" opacity="0.30"/><rect x="794" y="24" width="44" height="54" rx="5" fill="url(#warm)"/><rect x="1082" y="24" width="54" height="54" rx="5" fill="#CCD8E7" opacity="0.30"/><rect x="1150" y="24" width="70" height="54" rx="5" fill="url(#warm)"/><rect x="1234" y="24" width="30" height="54" rx="5" fill="#CCD8E7" opacity="0.30"/><rect x="656" y="144" width="82" height="54" rx="5" fill="#CCD8E7" opacity="0.28"/><rect x="752" y="144" width="86" height="54" rx="5" fill="url(#warm)"/><rect x="1082" y="144" width="76" height="54" rx="5" fill="url(#warm)"/><rect x="1172" y="144" width="92" height="54" rx="5" fill="#CCD8E7" opacity="0.28"/><rect x="656" y="264" width="52" height="54" rx="5" fill="url(#warm)"/><rect x="722" y="264" width="70" height="54" rx="5" fill="#CCD8E7" opacity="0.28"/><rect x="806" y="264" width="32" height="54" rx="5" fill="url(#warm)"/><rect x="1082" y="264" width="94" height="54" rx="5" fill="#CCD8E7" opacity="0.28"/><rect x="1190" y="264" width="74" height="54" rx="5" fill="url(#warm)"/><rect x="656" y="384" width="86" height="54" rx="5" fill="#CCD8E7" opacity="0.28"/><rect x="756" y="384" width="82" height="54" rx="5" fill="url(#warm)"/><rect x="1082" y="384" width="56" height="54" rx="5" fill="#CCD8E7" opacity="0.28"/><rect x="1152" y="384" width="112" height="54" rx="5" fill="url(#warm)"/><rect x="656" y="504" width="62" height="54" rx="5" fill="url(#warm)"/><rect x="732" y="504" width="52" height="54" rx="5" fill="#CCD8E7" opacity="0.28"/><rect x="798" y="504" width="40" height="54" rx="5" fill="url(#warm)"/><rect x="1082" y="504" width="66" height="54" rx="5" fill="url(#warm)"/><rect x="1162" y="504" width="102" height="54" rx="5" fill="#CCD8E7" opacity="0.28"/><rect x="656" y="624" width="72" height="54" rx="5" fill="#CCD8E7" opacity="0.28"/><rect x="742" y="624" width="96" height="54" rx="5" fill="url(#warm)"/><rect x="1082" y="624" width="52" height="54" rx="5" fill="#CCD8E7" opacity="0.28"/><rect x="1148" y="624" width="116" height="54" rx="5" fill="url(#warm)"/><rect x="656" y="744" width="68" height="54" rx="5" fill="url(#warm)"/><rect x="738" y="744" width="100" height="54" rx="5" fill="#CCD8E7" opacity="0.28"/><rect x="1082" y="744" width="84" height="54" rx="5" fill="url(#warm)"/><rect x="1180" y="744" width="84" height="54" rx="5" fill="#CCD8E7" opacity="0.28"/></g><g filter="url(#smallShadow)"><rect x="810" y="732" width="300" height="178" rx="12" fill="#817366"/><rect x="720" y="680" width="480" height="54" rx="8" fill="#4C403D"/><rect x="744" y="686" width="432" height="18" rx="6" fill="#675550" opacity="0.62"/><rect x="830" y="762" width="260" height="124" rx="8" fill="#6C6564"/><rect x="846" y="774" width="90" height="100" rx="6" fill="#2E333B"/><rect x="984" y="774" width="90" height="100" rx="6" fill="#2E333B"/><rect x="846" y="774" width="90" height="100" rx="6" fill="#6B88A4" opacity="0.28"/><rect x="984" y="774" width="90" height="100" rx="6" fill="#6B88A4" opacity="0.28"/><rect x="944" y="752" width="28" height="92" rx="6" fill="#5B504A"/><rect x="782" y="910" width="356" height="20" fill="#6F6359"/><rect x="740" y="930" width="440" height="28" fill="#574C47"/></g><g opacity="0.96"><circle cx="704" cy="54" r="6" fill="url(#warm)"/><circle cx="760" cy="54" r="6" fill="#CCD8E7"/><circle cx="816" cy="54" r="6" fill="url(#warm)"/><circle cx="1104" cy="54" r="6" fill="url(#warm)"/><circle cx="1160" cy="54" r="6" fill="#CCD8E7"/><circle cx="1216" cy="54" r="6" fill="url(#warm)"/><circle cx="790" cy="708" r="6" fill="url(#warm)"/><circle cx="1130" cy="708" r="6" fill="url(#warm)"/></g><g filter="url(#smallShadow)"><rect x="430" y="760" width="210" height="72" rx="10" fill="#625B57"/><rect x="1280" y="760" width="210" height="72" rx="10" fill="#625B57"/><rect x="360" y="844" width="320" height="24" rx="8" fill="#544C47"/><rect x="1240" y="844" width="320" height="24" rx="8" fill="#544C47"/><ellipse cx="536" cy="774" rx="76" ry="42" fill="url(#tree)"/><ellipse cx="1386" cy="774" rx="76" ry="42" fill="url(#tree)"/><rect x="468" y="708" width="18" height="92" rx="9" fill="#635649"/><rect x="1434" y="708" width="18" height="92" rx="9" fill="#635649"/><ellipse cx="477" cy="686" rx="66" ry="78" fill="url(#tree)"/><ellipse cx="1443" cy="684" rx="66" ry="78" fill="url(#tree)"/></g><rect x="0" y="730" width="1920" height="32" fill="#67615F" opacity="0.45"/><rect x="0" y="762" width="1920" height="74" fill="#5B5354" opacity="0.55"/><rect x="0" y="836" width="1920" height="244" fill="#272327" opacity="0.88"/><g opacity="0.18" stroke="#171516" stroke-width="3"><line x1="88" y1="886" x2="1832" y2="886"/><line x1="104" y1="954" x2="1816" y2="954"/><line x1="126" y1="1022" x2="1794" y2="1022"/></g><g opacity="0.62" fill="#7B746F"><rect x="240" y="952" width="140" height="10" rx="5"/><rect x="890" y="952" width="140" height="10" rx="5"/><rect x="1540" y="952" width="140" height="10" rx="5"/></g><g opacity="0.28" fill="#E7EDF9"><circle cx="308" cy="104" r="4"/><circle cx="604" cy="54" r="4"/><circle cx="1262" cy="126" r="4"/><circle cx="1560" cy="160" r="4"/><circle cx="1740" cy="110" r="4"/></g><rect width="1920" height="1080" filter="url(#grain)" opacity="0.82"/><rect width="1920" height="1080" fill="url(#vignette)"/></svg>