<svg xmlns="http://www.w3.org/2000/svg" width="1200" height="700" viewBox="0 0 1200 700"><defs><linearGradient id="body3" x1="0" y1="0" x2="0" y2="1"><stop offset="0%" stop-color="#ffffff"/><stop offset="55%" stop-color="#eef1f3"/><stop offset="100%" stop-color="#d9dde0"/></linearGradient><linearGradient id="glass3" x1="0" y1="0" x2="1" y2="1"><stop offset="0%" stop-color="#69838d"/><stop offset="100%" stop-color="#25353d"/></linearGradient><linearGradient id="chrome3" x1="0" y1="0" x2="1" y2="1"><stop offset="0%" stop-color="#f7f8f9"/><stop offset="100%" stop-color="#8e959c"/></linearGradient><filter id="shadow3" x="-25%" y="-25%" width="160%" height="160%"><feDropShadow dx="0" dy="10" stdDeviation="8" flood-color="#000" flood-opacity="0.18"/></filter></defs><rect width="1200" height="700" fill="none"/><ellipse cx="600" cy="600" rx="400" ry="32" fill="#000" opacity="0.1"/><g filter="url(#shadow3)"><path d="M184 500 C199 438 248 384 327 360 L480 314 C527 300 625 292 752 296 L846 300 C900 302 946 319 988 351 L1037 389 C1075 419 1103 456 1111 500 L1113 535 C1113 553 1099 566 1082 566 L231 566 C207 566 187 548 184 525 Z" fill="url(#body3)"/><path d="M350 358 L479 321 C526 309 620 304 741 307 L829 311 C876 313 917 327 954 354 L988 379 L980 396 L363 396 L337 379 L337 368 C337 364 342 360 350 358 Z" fill="url(#glass3)"/><rect x="383" y="392" width="523" height="36" fill="#ffffff" opacity="0.08"/><path d="M313 404 C291 431 277 460 268 501 L206 501 C207 449 241 403 313 404 Z" fill="#f4f6f8"/><rect x="222" y="412" width="165" height="87" rx="14" fill="#dde2e6"/><g stroke="#808991" stroke-width="8"><line x1="242" y1="431" x2="372" y2="431"/><line x1="236" y1="451" x2="378" y2="451"/><line x1="231" y1="471" x2="383" y2="471"/></g><path d="M279 395 C305 385 340 374 382 370" stroke="#d4d9de" stroke-width="4" opacity="0.7" fill="none"/><path d="M896 370 C982 395 1043 447 1078 516" stroke="#d9dde1" stroke-width="4" opacity="0.5" fill="none"/><path d="M370 423 H1038" stroke="#b8bec4" stroke-width="3" opacity="0.4"/><path d="M372 501 H1040" stroke="#aeb4ba" stroke-width="3" opacity="0.25"/><path d="M512 323 L530 555" stroke="#aab0b6" stroke-width="3" opacity="0.45"/><path d="M671 309 L688 556" stroke="#aab0b6" stroke-width="3" opacity="0.45"/><path d="M837 311 L854 557" stroke="#aab0b6" stroke-width="3" opacity="0.45"/><rect x="526" y="420" width="42" height="12" rx="6" fill="#d9dde1"/><rect x="818" y="420" width="42" height="12" rx="6" fill="#d9dde1"/><rect x="894" y="422" width="36" height="11" rx="5" fill="#d9dde1"/><path d="M694 463 H870" stroke="#8b9198" stroke-width="6" opacity="0.4" stroke-linecap="round"/><path d="M939 401 C986 417 1039 469 1052 507 C1027 517 993 521 964 521 L933 521 Z" fill="#eef1f3"/><rect x="953" y="405" width="64" height="100" rx="10" fill="#f9fafb" opacity="0.65"/><rect x="296" y="390" width="19" height="167" fill="#23262a" opacity="0.9"/><rect x="508" y="319" width="18" height="238" fill="#23262a" opacity="0.8"/><rect x="670" y="306" width="19" height="251" fill="#23262a" opacity="0.8"/><rect x="836" y="309" width="18" height="248" fill="#23262a" opacity="0.8"/><rect x="931" y="390" width="17" height="167" fill="#23262a" opacity="0.8"/><path d="M272 566 C287 520 319 491 360 484 C406 476 454 491 486 526 C495 536 502 549 506 566" fill="#f1f3f5"/><path d="M794 566 C804 529 831 499 867 487 C917 470 977 480 1020 519 C1035 532 1047 548 1052 566" fill="#f1f3f5"/><g><circle cx="396" cy="566" r="96" fill="#16181c"/><circle cx="396" cy="566" r="74" fill="#d4d8dc"/><circle cx="396" cy="566" r="58" fill="#bcc2c7"/><circle cx="396" cy="566" r="16" fill="#7a8087"/><g stroke="#91979e" stroke-width="4"><line x1="396" y1="498" x2="396" y2="634"/><line x1="328" y1="566" x2="464" y2="566"/><line x1="348" y1="518" x2="444" y2="614"/><line x1="348" y1="614" x2="444" y2="518"/></g></g><g><circle cx="916" cy="566" r="90" fill="#16181c"/><circle cx="916" cy="566" r="69" fill="#d4d8dc"/><circle cx="916" cy="566" r="54" fill="#bcc2c7"/><circle cx="916" cy="566" r="15" fill="#7a8087"/><g stroke="#91979e" stroke-width="4"><line x1="916" y1="503" x2="916" y2="629"/><line x1="853" y1="566" x2="979" y2="566"/><line x1="872" y1="521" x2="960" y2="609"/><line x1="872" y1="609" x2="960" y2="521"/></g></g></g></svg>